<svg width="1143" height="420" viewBox="0 0 1143 420" fill="none" xmlns="http://www.w3.org/2000/svg">
<rect x="10" y="10" width="1122.65" height="399.691" stroke="#F7E061" stroke-width="20"/>
<path d="M847.515 329.631V84.3135H906.808V182.776H1003.47V84.3135H1062.65V329.631H1003.47V231.049H906.808V329.631H847.515Z" fill="#F7E061"/>
<path d="M751.958 329.631L674.817 227.815H661.401V329.631H602.108V84.3135H661.401V179.542H670.864L746.807 84.3135H820.953L726.444 200.144L825.864 329.631H751.958Z" fill="#F7E061"/>
<path d="M382.065 329.631V84.3135H483.402C501.769 84.3135 517.62 87.907 530.956 95.094C544.372 102.201 554.713 112.143 561.98 124.92C569.247 137.617 572.881 152.391 572.881 169.24C572.881 186.17 569.167 200.983 561.741 213.68C554.394 226.297 543.893 236.08 530.238 243.027C516.582 249.975 500.371 253.448 481.605 253.448H419.078V206.733H470.585C479.529 206.733 486.996 205.175 492.985 202.061C499.054 198.947 503.646 194.594 506.76 189.005C509.874 183.335 511.432 176.747 511.432 169.24C511.432 161.654 509.874 155.106 506.76 149.596C503.646 144.006 499.054 139.694 492.985 136.659C486.916 133.625 479.449 132.107 470.585 132.107H441.358V329.631H382.065Z" fill="#F7E061"/>
<path d="M183.853 109.706H244.104C264.228 109.706 282.075 113.899 297.647 122.284C313.219 130.589 325.437 142.367 334.301 157.62C343.165 172.793 347.597 190.76 347.597 211.523C347.597 231.327 343.165 248.536 334.301 263.15C325.437 277.763 313.219 289.103 297.647 297.168C282.075 305.154 264.228 309.147 244.104 309.147H183.853C163.569 309.147 145.602 305.194 129.95 297.288C114.378 289.302 102.16 277.963 93.296 263.269C84.432 248.576 80 231.207 80 211.163C80 190.481 84.4719 172.553 93.4158 157.38C102.44 142.208 114.777 130.469 130.429 122.164C146.081 113.859 163.889 109.706 183.853 109.706ZM183.853 158.698C174.43 158.698 165.965 160.535 158.458 164.208C150.952 167.802 145.043 173.471 140.73 181.217C136.418 188.963 134.262 198.945 134.262 211.163C134.262 222.583 136.458 231.926 140.85 239.193C145.322 246.38 151.311 251.69 158.818 255.124C166.324 258.478 174.669 260.155 183.853 260.155H244.463C253.806 260.155 262.111 258.398 269.378 254.884C276.725 251.371 282.475 246.02 286.627 238.833C290.86 231.646 292.976 222.543 292.976 211.523C292.976 199.305 290.86 189.323 286.627 181.577C282.475 173.751 276.725 168.001 269.378 164.328C262.111 160.575 253.806 158.698 244.463 158.698H183.853ZM241.708 80V339.691H186.009V80H241.708Z" fill="#F7E061"/>
</svg>
