<svg width="1084" height="376" viewBox="0 0 1084 376" fill="none" xmlns="http://www.w3.org/2000/svg">
<rect x="10" y="10" width="1063.58" height="355.886" stroke="#F7E061" stroke-width="20"/>
<path d="M834.258 292.956V151.232L969.105 292.042C969.106 292.042 969.107 292.043 969.107 292.043C971.203 294.249 973.615 295.887 976.339 296.909L976.354 296.914L976.37 296.92C979.054 297.886 981.733 298.386 984.395 298.386C987.348 298.386 990.167 297.837 992.827 296.729C995.447 295.637 997.73 294.143 999.639 292.234C1001.62 290.25 1003.17 287.938 1004.26 285.316C1005.48 282.637 1006.08 279.753 1006.08 276.697V82.8978V80.3978H1003.58H965.498H962.998V82.8978V224.627L828.143 83.951L828.136 83.9446C825.051 80.7491 821.318 78.7345 816.996 77.9524C812.713 77.0798 808.511 77.4705 804.451 79.1162L804.401 79.1366L804.351 79.1593C800.508 80.9163 797.333 83.6091 794.844 87.1813L794.839 87.1878L794.834 87.1944C792.39 90.7493 791.172 94.7618 791.172 99.1576V292.956V295.456H793.672H831.758H834.258V292.956Z" fill="#F7E061" stroke="#F7E061" stroke-width="5"/>
<path d="M769.795 295.456H775.95L771.538 291.164L665.421 187.927L771.538 84.6894L775.95 80.3975H769.795H715.742H714.705L713.973 81.1312L629.012 166.237H603.242H600.742V168.737V207.116V209.616H603.242H629.012L713.973 294.722L714.705 295.456H715.742H769.795ZM588.008 295.456H590.508V292.956V82.8975V80.3975H588.008H549.922H547.422V82.8975V292.956V295.456H549.922H588.008Z" fill="#F7E061" stroke="#F7E061" stroke-width="5"/>
<path d="M522.113 291.064L447.307 226.453C450.241 226.181 453.264 225.727 456.375 225.094C461.937 223.981 467.39 222.212 472.73 219.794L472.74 219.79L472.75 219.785C478.201 217.261 483.391 214.085 488.319 210.264C493.311 206.392 497.682 201.764 501.433 196.392C505.306 190.887 508.342 184.596 510.559 177.544C512.798 170.42 513.896 162.396 513.896 153.503V129.187C513.896 124.211 513.017 118.937 511.301 113.38C509.642 107.69 506.852 102.429 502.958 97.6079C499.103 92.6135 494.08 88.5412 487.949 85.3713C481.643 82.012 474.042 80.3975 465.254 80.3975H320.674C317.635 80.3975 314.766 80.9416 312.095 82.0546C309.457 83.154 307.13 84.7024 305.137 86.6961L305.111 86.7213L305.087 86.7473C303.209 88.736 301.729 91.0458 300.642 93.6547C299.533 96.3148 298.984 99.1331 298.984 102.087V292.956V295.456H301.484H339.57H342.07V292.956V123.483H465.254C465.932 123.483 466.669 123.526 467.468 123.615L467.482 123.616L467.495 123.617C468.021 123.67 468.466 123.844 468.881 124.155L469.017 124.258L469.167 124.341C469.437 124.491 469.794 124.816 470.124 125.607L470.174 125.728L470.237 125.843C470.523 126.368 470.811 127.476 470.811 129.479V153.503C470.811 158.218 470.072 162.335 468.65 165.894C467.22 169.375 465.179 172.34 462.523 174.82L462.507 174.834L462.492 174.849C459.91 177.342 456.769 179.372 453.032 180.924C449.418 182.368 445.359 183.291 440.834 183.669H354.805H352.305V186.169V224.255V226.755H354.805H381.266L459.956 294.847L460.66 295.456H461.592H520.479H527.198L522.113 291.064Z" fill="#F7E061" stroke="#F7E061" stroke-width="5"/>
<path d="M253.73 209.616H256.23V207.116V168.737V166.237H253.73H133.32H130.82V168.737V207.116V209.616H133.32H253.73ZM270.723 123.483H273.223V120.983V82.8975V80.3975H270.723H99.1895C96.1507 80.3975 93.282 80.9416 90.6107 82.0546C87.9721 83.154 85.6459 84.7024 83.6522 86.6961L83.6269 86.7213L83.6024 86.7473C81.7242 88.736 80.2442 91.0458 79.1572 93.6547C78.0488 96.3148 77.5 99.1331 77.5 102.087V292.956V295.456H80H118.086H120.586V292.956V123.483H270.723Z" fill="#F7E061" stroke="#F7E061" stroke-width="5"/>
</svg>
