<svg xmlns="http://www.w3.org/2000/svg" fill="none">
<path fill="#0697EB" fill-rule="evenodd" d="M 0.082 0.995 c -0.204 0.446 -0.093 0.693 1.105 2.463 c 1.61 2.376 3.602 6.424 4.59 9.324 c 1.177 3.458 2.731 11.337 3.424 17.364 c 0.038 0.33 -0.002 0.848 -0.089 1.15 c -0.168 0.586 -2.17 3.399 -3.553 4.993 c -1.018 1.175 -1.189 1.65 -0.869 2.417 c 0.337 0.81 1.491 1.16 2.739 0.827 c 1.197 -0.32 1.229 -0.313 1.374 0.261 c 0.338 1.341 4.025 0.662 6.059 -1.117 c 0.426 -0.373 1.266 -1.29 1.866 -2.04 c 1.038 -1.294 1.135 -1.362 1.941 -1.363 c 1.097 0 4.771 -0.886 5.761 -1.39 c 0.974 -0.494 1.831 -1.443 3.47 -3.838 c 0.718 -1.049 1.81 -2.427 2.426 -3.063 c 1.715 -1.77 2.115 -1.683 6.1 1.323 c 2.424 1.828 3.206 1.958 3.995 0.67 c 0.543 -0.888 0.491 -1.444 -0.285 -3.054 c -1.3 -2.695 -2.953 -5.095 -5.643 -8.193 l -0.97 -1.117 l 1.316 -2.182 c 0.724 -1.2 1.955 -2.936 2.736 -3.857 c 0.781 -0.92 1.42 -1.794 1.42 -1.94 c 0 -0.379 -0.572 -0.897 -0.99 -0.897 c -1.181 0 -7.987 3.127 -8.832 4.058 c -0.359 0.394 -0.354 0.416 0.211 0.864 l 0.578 0.46 l 0.733 -0.5 c 0.711 -0.485 4.949 -2.67 5.178 -2.67 c 0.063 0 -0.139 0.33 -0.45 0.736 c -0.732 0.953 -1.725 2.52 -2.4 3.786 c -0.294 0.553 -0.567 1.04 -0.606 1.083 c -0.039 0.043 -0.686 -0.416 -1.439 -1.02 c -1.87 -1.5 -3.513 -2.575 -3.932 -2.575 c -0.727 0 -0.814 0.708 -0.291 2.363 c 0.775 2.452 1.605 6.792 1.453 7.6 c -0.109 0.58 -0.396 0.896 -1.64 1.813 l -1.509 1.11 l 0.351 0.592 c 0.193 0.326 0.429 0.592 0.524 0.592 c 0.248 0 2.585 -1.687 3.108 -2.244 c 0.243 -0.258 0.555 -0.89 0.693 -1.405 c 0.226 -0.843 0.187 -1.256 -0.391 -4.13 c -0.353 -1.758 -0.642 -3.265 -0.642 -3.35 c 0 -0.24 2.285 1.607 3.801 3.072 c 1.8 1.741 4.03 4.658 5.39 7.048 c 1.055 1.856 1.552 3.22 1.173 3.22 c -0.1 0 -1.088 -0.687 -2.195 -1.528 c -2.334 -1.771 -3.654 -2.492 -4.567 -2.492 c -1.652 0 -3.294 1.45 -5.824 5.146 c -0.765 1.117 -1.707 2.308 -2.094 2.645 c -1.045 0.915 -2.948 1.389 -7.895 1.967 c -1.443 0.169 -2.951 0.394 -3.351 0.5 c -0.401 0.107 -1.75 0.916 -2.999 1.798 c -2.062 1.454 -3.436 2.084 -3.787 1.735 c -0.07 -0.07 0.103 -0.374 0.384 -0.677 c 0.925 -0.998 3.417 -4.472 3.711 -5.175 c 0.405 -0.964 0.364 -2.094 -0.222 -6.107 c -1.479 -10.128 -3.421 -16.434 -6.803 -22.088 c -0.385 -0.645 -0.354 -0.633 1.594 0.572 c 3.805 2.354 6.079 4.291 9.3 7.922 c 3.461 3.902 5.704 7.504 7.542 12.115 c 0.341 0.856 0.643 1.58 0.671 1.608 c 0.141 0.142 1.327 -0.426 1.327 -0.636 c 0 -0.297 -0.718 -2.113 -1.625 -4.114 c -0.629 -1.388 -0.649 -1.499 -0.318 -1.74 c 0.194 -0.141 1.305 -1.18 2.469 -2.307 l 2.115 -2.05 l -0.226 -0.682 c -0.205 -0.62 -0.266 -0.66 -0.665 -0.447 c -0.241 0.128 -1.421 1.176 -2.622 2.33 l -2.183 2.095 l -0.881 -1.423 c -2.863 -4.626 -7.864 -9.856 -12.211 -12.771 Z m 15.299 34.86 c 0 0.45 -2.459 2.414 -3.419 2.732 c -1.616 0.535 -1.807 0.363 -0.826 -0.746 c 1.113 -1.258 1.833 -1.746 2.877 -1.951 c 1.198 -0.235 1.368 -0.24 1.368 -0.034 Z" clip-rule="evenodd"/>
</svg>