<svg width="1314" height="572" viewBox="0 0 1314 572" fill="none" xmlns="http://www.w3.org/2000/svg">
<path d="M1313.48 200.439C1313.48 205.892 1312.78 210.775 1311.4 215.088C1310.02 219.482 1308.19 223.307 1305.91 226.562C1303.63 229.899 1300.98 232.707 1297.97 234.985C1294.96 237.345 1291.79 239.258 1288.45 240.723C1285.2 242.188 1281.9 243.245 1278.56 243.896C1275.23 244.629 1272.05 244.995 1269.04 244.995H1211.79V213.257H1269.04C1273.27 213.257 1276.45 212.158 1278.56 209.961C1280.68 207.764 1281.74 204.59 1281.74 200.439V55.7861H1313.48V200.439ZM1269.04 187.744H1211.79C1207.23 187.744 1202.35 186.971 1197.14 185.425C1192.02 183.879 1187.22 181.356 1182.74 177.856C1178.26 174.276 1174.56 169.678 1171.63 164.062C1168.7 158.366 1167.24 151.408 1167.24 143.188V55.7861H1198.97V143.188C1198.97 147.339 1200.07 150.513 1202.27 152.71C1204.47 154.907 1207.72 156.006 1212.04 156.006H1269.04V187.744Z" fill="#1F1F1F"/>
<path d="M1140.87 143.188C1140.87 146.2 1140.5 149.373 1139.77 152.71C1139.12 156.047 1138.06 159.383 1136.6 162.72C1135.13 165.975 1133.22 169.108 1130.86 172.119C1128.58 175.13 1125.77 177.816 1122.44 180.176C1119.18 182.454 1115.4 184.285 1111.08 185.669C1106.77 187.052 1101.89 187.744 1096.44 187.744H1039.18C1036.17 187.744 1033 187.419 1029.66 186.768C1026.33 186.035 1022.99 184.937 1019.65 183.472C1016.4 182.007 1013.26 180.135 1010.25 177.856C1007.24 175.496 1004.56 172.689 1002.2 169.434C999.919 166.097 998.088 162.272 996.704 157.959C995.321 153.564 994.629 148.641 994.629 143.188V0H1026.37V143.188C1026.37 147.095 1027.59 150.228 1030.03 152.588C1032.47 154.867 1035.52 156.006 1039.18 156.006H1096.44C1100.42 156.006 1103.52 154.826 1105.71 152.466C1107.99 150.106 1109.13 147.013 1109.13 143.188V100.22C1109.13 96.2321 1107.95 93.1396 1105.59 90.9424C1103.23 88.6637 1100.18 87.5244 1096.44 87.5244H1039.18V55.7861H1096.44C1099.45 55.7861 1102.62 56.1523 1105.96 56.8848C1109.29 57.5358 1112.59 58.5938 1115.84 60.0586C1119.18 61.5234 1122.36 63.4359 1125.37 65.7959C1128.38 68.0745 1131.02 70.8822 1133.3 74.2188C1135.58 77.474 1137.41 81.2581 1138.79 85.5713C1140.18 89.8844 1140.87 94.7673 1140.87 100.22V143.188Z" fill="#1F1F1F"/>
<path d="M883.789 143.188C883.789 148.641 883.097 153.564 881.714 157.959C880.33 162.272 878.499 166.097 876.221 169.434C873.942 172.689 871.297 175.496 868.286 177.856C865.275 180.135 862.101 182.007 858.765 183.472C855.509 184.937 852.173 186.035 848.755 186.768C845.418 187.419 842.244 187.744 839.233 187.744H781.982C776.53 187.744 771.647 187.052 767.334 185.669C763.021 184.285 759.196 182.454 755.859 180.176C752.604 177.816 749.797 175.13 747.437 172.119C745.158 169.108 743.286 165.975 741.821 162.72C740.356 159.383 739.258 156.047 738.525 152.71C737.874 149.292 737.549 146.118 737.549 143.188V100.22C737.549 92.0817 739.014 85.2051 741.943 79.5898C744.954 73.8932 748.657 69.2952 753.052 65.7959C757.528 62.2152 762.37 59.6517 767.578 58.1055C772.786 56.5592 777.588 55.7861 781.982 55.7861H839.233V87.5244H782.227C777.995 87.5244 774.78 88.623 772.583 90.8203C770.386 92.9362 769.287 96.0693 769.287 100.22V142.944C769.287 147.257 770.345 150.513 772.461 152.71C774.658 154.907 777.832 156.006 781.982 156.006H839.233C843.547 156.006 846.761 154.907 848.877 152.71C850.993 150.513 852.051 147.339 852.051 143.188V0H883.789V143.188Z" fill="#1F1F1F"/>
<path d="M717.651 99.4873C717.651 103.882 716.878 108.643 715.332 113.77C713.786 118.815 711.263 123.535 707.764 127.93C704.346 132.243 699.829 135.864 694.214 138.794C688.68 141.724 681.925 143.188 673.95 143.188H616.699V113.037H673.95C678.263 113.037 681.6 111.735 683.96 109.131C686.32 106.445 687.5 103.149 687.5 99.2432C687.5 95.0928 686.157 91.8376 683.472 89.4775C680.868 87.1175 677.694 85.9375 673.95 85.9375H616.699C612.386 85.9375 609.049 87.2803 606.689 89.9658C604.329 92.57 603.149 95.8252 603.149 99.7314V144.043C603.149 148.275 604.451 151.571 607.056 153.931C609.741 156.291 613.037 157.471 616.943 157.471H673.95V187.744H616.699C612.305 187.744 607.544 186.971 602.417 185.425C597.371 183.879 592.651 181.396 588.257 177.979C583.944 174.479 580.322 169.963 577.393 164.429C574.463 158.813 572.998 152.018 572.998 144.043V99.4873C572.998 95.0928 573.771 90.3727 575.317 85.3271C576.864 80.2002 579.346 75.4801 582.764 71.167C586.263 66.7725 590.78 63.1104 596.313 60.1807C601.929 57.251 608.724 55.7861 616.699 55.7861H673.95C678.345 55.7861 683.065 56.5592 688.11 58.1055C693.237 59.6517 697.957 62.1745 702.271 65.6738C706.665 69.0918 710.327 73.6084 713.257 79.2236C716.187 84.7575 717.651 91.512 717.651 99.4873Z" fill="#1F1F1F"/>
<path d="M547.852 187.744H516.113V114.502C516.113 110.352 515.381 106.649 513.916 103.394C512.533 100.057 510.62 97.2087 508.179 94.8486C505.737 92.4886 502.848 90.6982 499.512 89.4775C496.257 88.1755 492.716 87.5244 488.892 87.5244H433.35V187.744H401.611V71.5332C401.611 69.3359 402.018 67.3014 402.832 65.4297C403.646 63.4766 404.785 61.8083 406.25 60.4248C407.715 58.96 409.424 57.8206 411.377 57.0068C413.33 56.193 415.405 55.7861 417.603 55.7861H489.136C493.123 55.7861 497.314 56.2337 501.709 57.1289C506.185 58.0241 510.579 59.4889 514.893 61.5234C519.287 63.4766 523.438 65.9993 527.344 69.0918C531.331 72.1029 534.831 75.8057 537.842 80.2002C540.934 84.5133 543.376 89.5182 545.166 95.2148C546.956 100.911 547.852 107.34 547.852 114.502V187.744Z" fill="#1F1F1F"/>
<path d="M390.625 55.7865C385.579 67.0983 380.127 78.2474 374.268 89.2337C368.408 100.139 362.264 110.474 355.835 120.24C349.487 130.005 342.977 139.038 336.304 147.339C329.631 155.559 322.998 162.679 316.406 168.701C309.896 174.642 303.507 179.322 297.241 182.74C291.056 186.076 285.197 187.744 279.663 187.744C277.384 187.744 275.269 187.338 273.315 186.524C271.362 185.71 269.653 184.611 268.188 183.228C266.724 181.763 265.584 180.054 264.771 178.101C263.957 176.148 263.55 174.032 263.55 171.753V112.549L200.562 182.984C198.934 184.611 197.144 185.832 195.19 186.646C193.319 187.378 191.366 187.744 189.331 187.744C187.134 187.744 185.059 187.338 183.105 186.524C181.234 185.71 179.565 184.611 178.101 183.228C176.636 181.763 175.456 180.054 174.561 178.101C173.747 176.148 173.34 174.032 173.34 171.753V55.7865H205.078V130.982L268.311 60.3031C270.589 58.0244 273.275 56.6003 276.367 56.0306C279.541 55.3796 282.633 55.7051 285.645 57.0072C288.656 58.2279 291.016 60.181 292.725 62.8665C294.515 65.4707 295.41 68.3597 295.41 71.5335V146.973C302.246 140.381 308.431 133.423 313.965 126.099C319.499 118.775 324.626 111.247 329.346 103.516C334.147 95.7034 338.623 87.8096 342.773 79.8343C347.005 71.7777 351.115 63.7617 355.103 55.7865H390.625Z" fill="#1F1F1F"/>
<path d="M146.24 143.188C146.24 148.641 145.549 153.564 144.165 157.959C142.782 162.272 140.951 166.097 138.672 169.434C136.393 172.689 133.748 175.496 130.737 177.856C127.726 180.135 124.552 182.007 121.216 183.472C117.961 184.937 114.624 186.035 111.206 186.768C107.869 187.419 104.696 187.744 101.685 187.744H44.4336C40.0391 187.744 35.2376 186.971 30.0293 185.425C24.821 183.879 19.9788 181.356 15.5029 177.856C11.1084 174.276 7.4056 169.678 4.39453 164.062C1.46484 158.366 0 151.408 0 143.188V100.22C0 92.0817 1.46484 85.2051 4.39453 79.5898C7.4056 73.8932 11.1084 69.2952 15.5029 65.7959C19.9788 62.2152 24.821 59.6517 30.0293 58.1055C35.2376 56.5592 40.0391 55.7861 44.4336 55.7861H101.685C109.823 55.7861 116.74 57.251 122.437 60.1807C128.133 63.1104 132.731 66.8132 136.23 71.2891C139.73 75.6836 142.253 80.485 143.799 85.6934C145.426 90.9017 146.24 95.7438 146.24 100.22V143.188ZM114.502 100.464C114.502 96.0693 113.403 92.8141 111.206 90.6982C109.009 88.5824 105.835 87.5244 101.685 87.5244H44.6777C40.446 87.5244 37.2314 88.623 35.0342 90.8203C32.8369 92.9362 31.7383 96.0693 31.7383 100.22V143.188C31.7383 147.339 32.8369 150.513 35.0342 152.71C37.2314 154.907 40.446 156.006 44.6777 156.006H101.685C105.998 156.006 109.212 154.907 111.328 152.71C113.444 150.513 114.502 147.339 114.502 143.188V100.464Z" fill="#1F1F1F"/>
<path d="M1313 544.626C1313 548.513 1312.24 552.123 1310.71 555.455C1309.32 558.787 1307.38 561.702 1304.88 564.201C1302.52 566.562 1299.67 568.436 1296.34 569.824C1293.01 571.212 1289.47 571.907 1285.72 571.907C1282.39 571.907 1278.99 571.282 1275.52 570.032C1272.18 568.783 1269.2 566.77 1266.56 563.993L1068.73 357.412V567.742H1014.58V292.23C1014.58 286.677 1016.11 281.679 1019.16 277.236C1022.36 272.655 1026.38 269.254 1031.24 267.032C1036.38 264.95 1041.65 264.464 1047.07 265.575C1052.48 266.546 1057.13 269.045 1061.02 273.071L1258.86 479.445V269.115H1313V544.626Z" fill="#1F1F1F"/>
<path d="M980.637 567.741H903.794L781.969 445.708H743.86V391.147H781.969L903.794 269.114H980.637L827.159 418.428L980.637 567.741ZM722.202 567.741H668.058V269.114H722.202V567.741Z" fill="#1F1F1F"/>
<path d="M613.289 369.49C613.289 381.846 611.762 392.883 608.707 402.601C605.653 412.319 601.488 420.927 596.212 428.424C591.076 435.782 585.106 442.098 578.303 447.374C571.5 452.65 564.351 457.023 556.854 460.494C549.496 463.826 541.999 466.255 534.363 467.782C526.866 469.309 519.786 470.073 513.122 470.073L626.2 567.741H542.485L429.614 470.073H390.672V415.929H513.122C519.924 415.373 526.102 413.985 531.656 411.764C537.348 409.404 542.207 406.28 546.233 402.393C550.398 398.505 553.591 393.854 555.812 388.44C558.034 382.887 559.144 376.57 559.144 369.49V335.337C559.144 332.283 558.728 329.992 557.895 328.465C557.201 326.799 556.229 325.619 554.979 324.925C553.869 324.092 552.619 323.606 551.231 323.467C549.981 323.328 548.801 323.259 547.691 323.259H369.014V567.741H314.87V296.395C314.87 292.646 315.564 289.106 316.953 285.774C318.341 282.442 320.215 279.527 322.575 277.028C325.074 274.529 327.99 272.585 331.322 271.197C334.654 269.808 338.263 269.114 342.151 269.114H547.691C559.769 269.114 569.973 271.336 578.303 275.778C586.633 280.082 593.366 285.566 598.503 292.23C603.779 298.755 607.527 305.835 609.748 313.471C612.109 321.107 613.289 328.257 613.289 334.92V369.49Z" fill="#1F1F1F"/>
<path d="M246.981 445.708H75.8021V391.147H246.981V445.708ZM271.138 323.259H54.1443V567.741H0V296.395C0 292.646 0.694158 289.106 2.08247 285.774C3.47079 282.442 5.34502 279.527 7.70515 277.028C10.2041 274.529 13.1196 272.585 16.4515 271.197C19.7835 269.808 23.3931 269.114 27.2804 269.114H271.138V323.259Z" fill="#1F1F1F"/>
</svg>
