<svg width="1161" height="1145" viewBox="0 0 1161 1145" fill="none" xmlns="http://www.w3.org/2000/svg">
<path d="M669.666 656.283C679.683 650.367 695.722 637.321 701.894 633.276C710.9 627.31 713.986 624.933 717.173 621.09C718.691 619.219 723.851 612.697 726.33 602.786C728.911 592.623 727.443 584.229 726.33 578.364C719.247 540.339 714.137 517.333 714.137 517.333C710.495 501.051 708.319 490.888 704.98 480.674C701.084 468.892 699.162 462.976 698.858 462.37C696.936 457.92 694.76 454.077 695.823 453.217C696.936 452.307 700.73 455.341 701.945 456.251C711.76 463.886 722.89 469.752 732.402 477.589C752.689 494.326 748.743 489.978 762.859 502.012C777.126 514.147 788.762 524.007 802.473 538.671C811.782 548.581 818.814 557.481 832.981 575.33C845.831 591.51 852.257 599.6 860.453 611.989C863.336 616.337 869.509 627.158 881.803 648.648C893.591 669.328 902.091 684.447 900.118 697.493C899.763 699.717 898.853 705.785 893.996 709.679C893.287 710.285 889.493 713.319 884.838 712.712C881.6 712.308 872.747 707.454 872.038 706.847C857.771 696.431 851.7 692.133 839.102 682.222C831.817 676.508 816.841 664.828 799.488 654.766C796.149 652.844 789.875 649.305 781.173 648.648C772.724 647.99 766.198 650.417 762.859 651.682C753.398 655.322 747.782 660.732 738.422 669.986C730.833 677.57 725.723 684.093 720.107 691.324C714.39 698.706 710.697 704.167 704.828 712.662C680.139 748.916 679.886 749.371 677.356 752.355C667.997 763.58 660.256 772.732 646.899 779.811C640.069 783.452 633.138 785.322 619.427 788.963C597.875 794.677 581.027 797.407 576.727 798.115C556.237 801.402 554.516 800.391 521.833 804.233C480.6 809.088 473.922 811.717 470.026 813.386C466.13 815.054 457.849 820.978 438.64 835.016C427.661 841.184 423.599 846.49 418.691 849.423C408.573 855.44 403.546 862.129 381.012 868.248C377.925 869.866 366.766 869.663 360.239 868.248C358.822 867.944 353.308 866.781 351.082 862.129C349.362 858.539 350.525 854.798 351.082 852.977C352.701 847.769 356.343 844.584 357.203 843.825C370.712 831.791 379.313 815.155 390.747 801.048C393.479 797.66 404.609 783.805 415.183 767.473C417.915 763.175 423.177 754.731 424.34 743.051C424.745 738.702 424.492 735.365 424.34 733.899C416.65 649.811 399.904 572.144 399.904 572.144C383.31 494.731 382.551 490.837 378.554 477.539C375.417 467.123 365.551 435.115 348.097 395.119C337.776 371.455 329.276 352.19 314.554 327.97C292.394 291.311 274.484 273.867 278.025 270.024C280.403 267.445 290.623 273.007 329.833 297.48C363.932 318.717 380.982 329.335 387.762 334.139C445.387 374.641 483.99 418.177 506.706 444.065C520.214 459.487 539.035 480.37 561.599 514.248C567.468 523.097 594.333 563.953 619.528 624.175C626.257 640.254 631.317 654.007 634.808 663.867" stroke="#5B7FFF" stroke-width="25.3158" stroke-miterlimit="10"/>
<path d="M588.62 568.672C596.724 561.627 604.88 554.532 613.086 547.437C621.799 539.789 625.446 534.002 638.971 522.026C645.353 516.39 668.519 489.57 683.715 484.538" stroke="#5B7FFF" stroke-width="25.3158" stroke-miterlimit="10"/>
<path d="M731.868 451.707C739.436 441.627 768.597 427.21 780.748 421.141C795.885 413.581 808.499 406.021 821.113 400.981C821.113 400.981 836.249 393.421 856.431 388.381C863.041 386.163 871.064 384.399 872.174 386.163C873.183 387.776 869.096 391.758 863.041 398.31C856.684 405.215 851.134 412.724 844.776 419.579C834.332 430.919 826.663 443.419 811.325 468.266C803.605 480.816 794.069 497.196 783.978 516.953" stroke="#5B7FFF" stroke-width="25.3158" stroke-miterlimit="10"/>
<path d="M443.443 831.691C443.19 834.029 417.6 860.012 417.953 863.722C418.307 867.126 411.132 878.055 417.953 881.561C433.113 886.643 461.616 878.548 479.596 867.893C489.57 861.983 489.263 861.512 512.104 838.34L537.21 806.3L543.553 794.75" stroke="#5B7FFF" stroke-width="25.3158" stroke-miterlimit="10"/>
</svg>
