<svg width="721" height="705" viewBox="0 0 721 705" fill="none" xmlns="http://www.w3.org/2000/svg">
<path d="M469.666 456.283C479.684 450.367 495.722 437.321 501.894 433.276C510.9 427.31 513.986 424.933 517.173 421.09C518.691 419.219 523.852 412.697 526.331 402.786C528.911 392.623 527.444 384.229 526.331 378.364C519.248 340.339 514.138 317.333 514.138 317.333C510.495 301.051 508.32 290.888 504.98 280.674C501.085 268.892 499.162 262.976 498.859 262.37C496.936 257.92 494.761 254.077 495.823 253.217C496.936 252.307 500.731 255.341 501.945 256.251C511.76 263.886 522.89 269.752 532.402 277.589C552.69 294.326 548.743 289.978 562.859 302.012C577.126 314.147 588.763 324.007 602.473 338.671C611.782 348.581 618.815 357.481 632.981 375.33C645.831 391.51 652.257 399.6 660.453 411.989C663.337 416.337 669.509 427.158 681.803 448.648C693.591 469.328 702.091 484.447 700.118 497.493C699.764 499.717 698.853 505.785 693.996 509.679C693.288 510.285 689.493 513.319 684.839 512.712C681.601 512.308 672.747 507.454 672.039 506.847C657.771 496.431 651.7 492.133 639.103 482.222C631.817 476.508 616.842 464.828 599.488 454.766C596.149 452.844 589.876 449.305 581.174 448.648C572.725 447.99 566.198 450.417 562.859 451.682C553.398 455.322 547.782 460.732 538.422 469.986C530.833 477.57 525.724 484.093 520.108 491.324C514.391 498.706 510.697 504.167 504.829 512.662C480.139 548.916 479.886 549.371 477.357 552.355C467.997 563.58 460.256 572.732 446.9 579.811C440.069 583.452 433.138 585.322 419.428 588.963C397.875 594.677 381.027 597.407 376.727 598.115C356.237 601.402 354.517 600.391 321.834 604.233C280.6 609.088 273.922 611.717 270.026 613.386C266.131 615.054 257.849 620.978 238.64 635.016C227.661 641.184 223.599 646.49 218.692 649.423C208.573 655.44 203.546 662.129 181.012 668.248C177.926 669.866 166.766 669.663 160.239 668.248C158.823 667.944 153.308 666.781 151.082 662.129C149.362 658.539 150.525 654.798 151.082 652.977C152.701 647.769 156.344 644.584 157.204 643.825C170.712 631.791 179.313 615.155 190.747 601.048C193.479 597.66 204.609 583.805 215.183 567.473C217.915 563.175 223.177 554.731 224.341 543.051C224.745 538.702 224.492 535.365 224.341 533.899C216.651 449.811 199.904 372.144 199.904 372.144C183.31 294.731 182.551 290.837 178.554 277.539C175.417 267.123 165.552 235.115 148.097 195.119C137.776 171.455 129.276 152.19 114.554 127.97C92.394 91.3112 74.4841 73.8666 78.0256 70.0237C80.4035 67.4449 90.6233 73.007 129.833 97.48C163.933 118.717 180.982 129.335 187.762 134.139C245.387 174.641 283.99 218.177 306.706 244.065C320.215 259.487 339.035 280.37 361.6 314.248C367.468 323.097 394.333 363.953 419.529 424.175C426.258 440.254 431.317 454.007 434.808 463.867" stroke="#F7E061" stroke-width="40" stroke-miterlimit="10"/>
<path d="M388.62 368.672C396.725 361.627 404.88 354.532 413.086 347.437C421.799 339.789 425.446 334.002 438.971 322.026C445.353 316.39 468.519 289.57 483.715 284.538" stroke="#F7E061" stroke-width="40" stroke-miterlimit="10"/>
<path d="M531.868 251.707C539.436 241.627 568.597 227.21 580.749 221.141C595.885 213.581 608.499 206.021 621.113 200.981C621.113 200.981 636.25 193.421 656.432 188.381C663.042 186.163 671.064 184.399 672.174 186.163C673.183 187.776 669.096 191.758 663.042 198.31C656.684 205.215 651.134 212.724 644.777 219.579C634.332 230.919 626.663 243.419 611.325 268.266C603.605 280.816 594.069 297.196 583.978 316.953" stroke="#F7E061" stroke-width="40" stroke-miterlimit="10"/>
<path d="M243.443 631.691C243.19 634.029 217.6 660.012 217.953 663.722C218.307 667.126 211.131 678.055 217.953 681.561C233.113 686.643 261.616 678.548 279.596 667.893C289.57 661.983 289.263 661.512 312.104 638.34L337.21 606.3L343.553 594.75" stroke="#F7E061" stroke-width="40" stroke-miterlimit="10"/>
</svg>
